<svg width="31" height="35" xmlns="http://www.w3.org/2000/svg" xmlns:xlink="http://www.w3.org/1999/xlink" xml:space="preserve" overflow="hidden"><g transform="translate(-980 -415)"><path d="M14.9546 19.7975 5.79481 19.7975" stroke="#98857B" stroke-width="1.37309" stroke-linecap="round" stroke-linejoin="round" fill="none" transform="matrix(1 0 0 1.01888 980.069 415)"/><path d="M11.9821 16.0401 5.79481 16.0401" stroke="#98857B" stroke-width="1.37309" stroke-linecap="round" stroke-linejoin="round" fill="none" transform="matrix(1 0 0 1.01888 980.069 415)"/><path d="M24.6405 15.5642C24.6405 16.8646 23.5862 17.9188 22.2858 17.9188 20.9853 17.9188 19.9311 16.8646 19.9311 15.5642 19.9311 14.2637 20.9853 13.2095 22.2858 13.2095 23.5862 13.2095 24.6405 14.2637 24.6405 15.5642Z" stroke="#98857B" stroke-width="1.37309" stroke-linecap="round" stroke-linejoin="round" fill="none" transform="matrix(1 0 0 1.01888 980.069 415)"/><path d="M23.9307 10.6962 20.6325 10.6962 19.1045 2.29621C18.9291 1.31928 19.6723 0.425843 20.6659 0.425843L23.8973 0.425843C24.891 0.425843 25.6424 1.32763 25.4587 2.29621L23.9307 10.6962Z" stroke="#98857B" stroke-width="1.37309" stroke-linecap="round" stroke-linejoin="round" fill="none" transform="matrix(1 0 0 1.01888 980.069 415)"/><path d="M16.9419 7.53158 3.53199 7.53158C1.81192 7.53158 0.417493 8.92601 0.417493 10.6461L0.417493 24.2981C0.417493 26.0182 1.81192 27.4126 3.53199 27.4126L5.33556 27.4126 5.33556 33.9255 11.623 27.4126 27.3291 27.4126C29.0492 27.4126 30.4436 26.0182 30.4436 24.2981L30.4436 10.6461C30.4436 8.92601 29.0492 7.53158 27.3291 7.53158" stroke="#98857B" stroke-width="1.37309" stroke-linecap="round" stroke-linejoin="round" fill="none" transform="matrix(1 0 0 1.01888 980.069 415)"/></g></svg>