<svg width="30" height="36" xmlns="http://www.w3.org/2000/svg" xmlns:xlink="http://www.w3.org/1999/xlink" xml:space="preserve" overflow="hidden"><g transform="translate(-73 -186)"><path d="M19.8772 4.53394C19.8772 6.05455 18.6445 7.28725 17.1239 7.28725 15.6032 7.28725 14.3705 6.05455 14.3705 4.53394 14.3705 3.01333 15.6032 1.78063 17.1239 1.78063 18.6445 1.78063 19.8772 3.01333 19.8772 4.53394Z" stroke="#98857B" stroke-width="1.3248" stroke-linecap="round" stroke-linejoin="round" fill="none" transform="matrix(1 0 0 1.01333 73.198 186)"/><path d="M25.8937 19.4144C26.0976 20.3164 27.0075 20.8812 27.9096 20.6773 28.8117 20.4733 29.3765 19.5634 29.1725 18.6613 29.1725 18.6613 28.4587 12.9037 28.443 12.8409 28.3881 12.2761 28.0508 11.7506 27.5096 11.4917L21.1558 9.24045C19.8223 8.78549 18.9829 8.87962 18.5437 8.95806 17.924 9.06003 16.8885 9.13063 16.2532 10.2523L13.3743 15.2099 7.99322 14.8647C7.06761 14.8804 6.33026 15.657 6.35379 16.5826 6.36948 17.5082 7.14605 18.2456 8.07167 18.222 8.07167 18.222 13.8528 18.7005 13.9156 18.6927 14.4804 18.7554 15.0608 18.5358 15.4295 18.0495L16.9121 15.6099 18.3397 20.34 13.1782 24.6543C12.284 25.6662 12.7939 26.8506 12.7939 26.8506L14.4725 33.5104C14.6686 34.4124 15.5629 34.9929 16.4649 34.7968 17.367 34.6007 17.9475 33.7065 17.7514 32.8044L16.2218 26.4427 21.2813 22.8187 24.7641 34.0516C25.0935 34.9145 26.0741 35.3459 26.9369 35.0164 27.7998 34.687 28.2312 33.7065 27.9018 32.8436L22.0422 13.0763 25.3132 14.2372 25.925 19.4065Z" stroke="#98857B" stroke-width="1.3248" stroke-linecap="round" stroke-linejoin="round" fill="none" transform="matrix(1 0 0 1.01333 73.198 186)"/><path d="M4.27508 1.18447 0.604002 7.54611C-0.00784419 8.60507 0.753042 9.92289 1.97673 9.92289L9.31889 9.92289C10.5347 9.92289 11.3035 8.60507 10.6916 7.54611L7.02055 1.18447C6.4087 0.125507 4.88693 0.125507 4.27508 1.18447Z" stroke="#98857B" stroke-width="1.3248" stroke-linecap="round" stroke-linejoin="round" fill="none" transform="matrix(1 0 0 1.01333 73.198 186)"/><path d="M5.64781 3.71814 5.64781 6.40086" stroke="#98857B" stroke-width="1.3248" stroke-linecap="round" stroke-linejoin="round" fill="none" transform="matrix(1 0 0 1.01333 73.198 186)"/><path d="M5.68703 7.45198 5.68703 7.74221" stroke="#98857B" stroke-width="1.3248" stroke-linecap="round" stroke-linejoin="round" fill="none" transform="matrix(1 0 0 1.01333 73.198 186)"/></g></svg>