<svg width="31" height="31" xmlns="http://www.w3.org/2000/svg" xmlns:xlink="http://www.w3.org/1999/xlink" xml:space="preserve" overflow="hidden"><g transform="translate(-382 -417)"><path d="M382.405 424.951 382.405 418.982C382.405 418.115 383.119 417.401 383.986 417.401L389.955 417.401" stroke="#98857B" stroke-width="1.39061" stroke-linecap="round" stroke-linejoin="round" fill="none"/><path d="M389.955 447.591 383.986 447.591C383.119 447.591 382.405 446.885 382.405 446.01L382.405 440.041" stroke="#98857B" stroke-width="1.39061" stroke-linecap="round" stroke-linejoin="round" fill="none"/><path d="M412.595 440.049 412.595 446.018C412.595 446.885 411.881 447.599 411.014 447.599L405.045 447.599" stroke="#98857B" stroke-width="1.39061" stroke-linecap="round" stroke-linejoin="round" fill="none"/><path d="M405.045 417.401 411.006 417.401C411.881 417.401 412.587 418.115 412.587 418.982L412.587 424.951" stroke="#98857B" stroke-width="1.39061" stroke-linecap="round" stroke-linejoin="round" fill="none"/><path d="M410.276 432.5C410.276 432.5 404.556 439.512 397.496 439.512 390.436 439.512 384.724 432.5 384.724 432.5 384.724 432.5 390.444 425.488 397.504 425.488 404.564 425.488 410.284 432.5 410.284 432.5Z" stroke="#98857B" stroke-width="1.39061" stroke-linecap="round" stroke-linejoin="round" fill="none"/><path d="M404.925 432.5C404.925 436.373 401.603 439.512 397.504 439.512 393.405 439.512 390.083 436.373 390.083 432.5 390.083 428.627 393.405 425.488 397.504 425.488 401.603 425.488 404.925 428.627 404.925 432.5Z" stroke="#98857B" stroke-width="1.39061" stroke-linecap="round" stroke-linejoin="round" fill="none"/><path d="M399.975 432.5C399.975 433.789 398.869 434.835 397.504 434.835 396.139 434.835 395.033 433.789 395.033 432.5 395.033 431.211 396.139 430.165 397.504 430.165 398.869 430.165 399.975 431.211 399.975 432.5Z" stroke="#98857B" stroke-width="1.39061" stroke-linecap="round" stroke-linejoin="round" fill="none"/></g></svg>