<svg width="38" height="30" xmlns="http://www.w3.org/2000/svg" xmlns:xlink="http://www.w3.org/1999/xlink" xml:space="preserve" overflow="hidden"><g transform="translate(-677 -189)"><path d="M29.4848 29.0844 29.4848 18.6118C29.4848 15.1005 26.6125 12.2205 23.0935 12.2205L18.8352 15.4085 14.5768 12.2205C11.0578 12.2205 8.18551 15.1005 8.18551 18.6118L8.18551 29.0844" stroke="#98857B" stroke-width="1.32393" stroke-linecap="round" stroke-linejoin="round" fill="none" transform="matrix(1 0 0 1.01801 677.161 189)"/><path d="M25.3343 21.6381 25.3343 29.0844" stroke="#98857B" stroke-width="1.32393" stroke-linecap="round" stroke-linejoin="round" fill="none" transform="matrix(1 0 0 1.01801 677.161 189)"/><path d="M18.8352 0.385019C21.5688 0.385019 23.7942 2.60273 23.7942 5.34407 23.7942 8.08541 21.5765 10.3031 18.8352 10.3031 16.0938 10.3031 13.8761 8.08541 13.8761 5.34407 13.8761 2.60273 16.1015 0.385019 18.8352 0.385019L18.8352 0.385019Z" stroke="#98857B" stroke-width="1.32393" stroke-linecap="round" stroke-linejoin="round" fill="none" transform="matrix(1 0 0 1.01801 677.161 189)"/><path d="M12.1743 21.6381 12.1743 29.0844" stroke="#98857B" stroke-width="1.32393" stroke-linecap="round" stroke-linejoin="round" fill="none" transform="matrix(1 0 0 1.01801 677.161 189)"/><path d="M2.86454 2.48723 2.86454 8.99405 0.385019 8.99405 4.82044 13.8299 9.25587 8.99405 6.76864 8.99405 6.76864 2.48723" stroke="#98857B" stroke-width="1.32393" stroke-linecap="round" stroke-linejoin="round" fill="none" transform="matrix(1 0 0 1.01801 677.161 189)"/><path d="M30.9017 2.48723 30.9017 8.99405 28.4221 8.99405 32.8576 13.8299 37.293 8.99405 34.8058 8.99405 34.8058 2.48723" stroke="#98857B" stroke-width="1.32393" stroke-linecap="round" stroke-linejoin="round" fill="none" transform="matrix(1 0 0 1.01801 677.161 189)"/></g></svg>